<svg width="32" height="32" viewBox="0 0 32 32" fill="none" xmlns="http://www.w3.org/2000/svg">
<path d="M0 8C0 3.58172 3.58172 0 8 0H24C28.4183 0 32 3.58172 32 8V24C32 28.4183 28.4183 32 24 32H8C3.58172 32 0 28.4183 0 24V8Z" fill="#EAB308"/>
<path d="M18.1719 13.9219C18.125 13.474 17.9297 13.125 17.5859 12.875C17.2422 12.625 16.7865 12.5 16.2188 12.5C15.8281 12.5 15.4922 12.5573 15.2109 12.6719C14.9349 12.7812 14.724 12.9349 14.5781 13.1328C14.4323 13.3307 14.3594 13.5573 14.3594 13.8125C14.3594 14.1771 14.5234 14.4688 14.8516 14.6875C15.1797 14.9062 15.6198 15.0781 16.1719 15.2031L17.1875 15.4531C18.2344 15.6875 19.0599 16.0755 19.6641 16.6172C20.2734 17.1536 20.5781 17.8698 20.5781 18.7656C20.5781 19.4583 20.4036 20.0599 20.0547 20.5703C19.7057 21.0755 19.2031 21.4661 18.5469 21.7422C17.8906 22.0182 17.1094 22.1562 16.2031 22.1562C15.2865 22.1562 14.4896 22.0156 13.8125 21.7344C13.1406 21.4531 12.6172 21.0391 12.2422 20.4922C11.8724 19.9401 11.6771 19.2656 11.6562 18.4688H13.9375C13.974 19.026 14.1927 19.4531 14.5938 19.75C15 20.0417 15.526 20.1875 16.1719 20.1875C16.5781 20.1875 16.9349 20.1276 17.2422 20.0078C17.5495 19.888 17.7865 19.7214 17.9531 19.5078C18.1198 19.2943 18.2031 19.0469 18.2031 18.7656C18.2031 18.401 18.0443 18.112 17.7266 17.8984C17.4141 17.6849 16.9271 17.4948 16.2656 17.3281L15.0312 17.0312C12.9792 16.526 11.9531 15.5 11.9531 13.9531C11.9531 13.276 12.1354 12.6797 12.5 12.1641C12.8698 11.6432 13.3802 11.2422 14.0312 10.9609C14.6823 10.6745 15.4167 10.5312 16.2344 10.5312C17.0573 10.5312 17.7839 10.6745 18.4141 10.9609C19.0443 11.2474 19.5339 11.6484 19.8828 12.1641C20.2318 12.6745 20.4115 13.2604 20.4219 13.9219H18.1719Z" fill="white"/>
</svg>
