<svg width="12" height="12" viewBox="0 0 12 12" fill="none" xmlns="http://www.w3.org/2000/svg">
<path d="M4.2 0V1.2H7.8V0H9V1.2H11.4C11.568 1.2 11.71 1.258 11.826 1.374C11.942 1.49 12 1.632 12 1.8V11.4C12 11.568 11.942 11.71 11.826 11.826C11.71 11.942 11.568 12 11.4 12H0.6C0.432 12 0.29 11.942 0.174 11.826C0.058 11.71 0 11.568 0 11.4V1.8C0 1.632 0.058 1.49 0.174 1.374C0.29 1.258 0.432 1.2 0.6 1.2H3V0H4.2ZM10.8 6H1.2V10.8H10.8V6ZM3.6 7.8V9H2.4V7.8H3.6ZM9.6 7.8V9H4.8V7.8H9.6ZM3 2.4H1.2V4.8H10.8V2.4H9V3.6H7.8V2.4H4.2V3.6H3V2.4Z" fill="#DB2777"/>
</svg>
