<svg width="14" height="14" viewBox="0 0 14 14" fill="none" xmlns="http://www.w3.org/2000/svg">
<path d="M4.66375 -0.00130177V1.33203H8.66125V-0.00130177H9.99375V1.33203H12.6588C12.8453 1.33203 13.003 1.39648 13.1318 1.52536C13.2606 1.65425 13.325 1.81203 13.325 1.9987V12.6654C13.325 12.852 13.2606 13.0098 13.1318 13.1387C13.003 13.2676 12.8453 13.332 12.6588 13.332H0.66625C0.4797 13.332 0.322021 13.2676 0.193213 13.1387C0.0644042 13.0098 0 12.852 0 12.6654V1.9987C0 1.81203 0.0644042 1.65425 0.193213 1.52536C0.322021 1.39648 0.4797 1.33203 0.66625 1.33203H3.33125V-0.00130177H4.66375ZM11.9925 6.66536H1.3325V11.9987H11.9925V6.66536ZM3.33125 2.66537H1.3325V5.33203H11.9925V2.66537H9.99375V3.9987H8.66125V2.66537H4.66375V3.9987H3.33125V2.66537Z" fill="#9CA3AF"/>
</svg>
