<svg width="12" height="12" viewBox="0 0 12 12" fill="none" xmlns="http://www.w3.org/2000/svg">
<path d="M1.74937 9.33317H2.91563V10.4998H9.91313V1.1665H2.91563V2.33317H1.74937V0.583171C1.74937 0.419837 1.80574 0.281781 1.91848 0.169003C2.03122 0.0562258 2.16922 -0.000163078 2.3325 -0.000163078H10.4963C10.6595 -0.000163078 10.7975 0.0562258 10.9103 0.169003C11.023 0.281781 11.0794 0.419837 11.0794 0.583171V11.0832C11.0794 11.2465 11.023 11.3846 10.9103 11.4973C10.7975 11.6101 10.6595 11.6665 10.4963 11.6665H2.3325C2.16922 11.6665 2.03122 11.6101 1.91848 11.4973C1.80574 11.3846 1.74937 11.2465 1.74937 11.0832V9.33317ZM2.91563 5.24984H6.9975V6.4165H2.91563V8.1665L0 5.83317L2.91563 3.49984V5.24984Z" fill="#DC2626"/>
</svg>
