<svg width="134" height="32" viewBox="0 0 134 32" fill="none" xmlns="http://www.w3.org/2000/svg">
<path d="M0 8C0 3.58172 3.58172 0 8 0H24C28.4183 0 32 3.58172 32 8V24C32 28.4183 28.4183 32 24 32H8C3.58172 32 0 28.4183 0 24V8Z" fill="#EAB308"/>
<path d="M18.1719 13.9219C18.125 13.474 17.9297 13.125 17.5859 12.875C17.2422 12.625 16.7865 12.5 16.2188 12.5C15.8281 12.5 15.4922 12.5573 15.2109 12.6719C14.9349 12.7812 14.724 12.9349 14.5781 13.1328C14.4323 13.3307 14.3594 13.5573 14.3594 13.8125C14.3594 14.1771 14.5234 14.4688 14.8516 14.6875C15.1797 14.9062 15.6198 15.0781 16.1719 15.2031L17.1875 15.4531C18.2344 15.6875 19.0599 16.0755 19.6641 16.6172C20.2734 17.1536 20.5781 17.8698 20.5781 18.7656C20.5781 19.4583 20.4036 20.0599 20.0547 20.5703C19.7057 21.0755 19.2031 21.4661 18.5469 21.7422C17.8906 22.0182 17.1094 22.1562 16.2031 22.1562C15.2865 22.1562 14.4896 22.0156 13.8125 21.7344C13.1406 21.4531 12.6172 21.0391 12.2422 20.4922C11.8724 19.9401 11.6771 19.2656 11.6562 18.4688H13.9375C13.974 19.026 14.1927 19.4531 14.5938 19.75C15 20.0417 15.526 20.1875 16.1719 20.1875C16.5781 20.1875 16.9349 20.1276 17.2422 20.0078C17.5495 19.888 17.7865 19.7214 17.9531 19.5078C18.1198 19.2943 18.2031 19.0469 18.2031 18.7656C18.2031 18.401 18.0443 18.112 17.7266 17.8984C17.4141 17.6849 16.9271 17.4948 16.2656 17.3281L15.0312 17.0312C12.9792 16.526 11.9531 15.5 11.9531 13.9531C11.9531 13.276 12.1354 12.6797 12.5 12.1641C12.8698 11.6432 13.3802 11.2422 14.0312 10.9609C14.6823 10.6745 15.4167 10.5312 16.2344 10.5312C17.0573 10.5312 17.7839 10.6745 18.4141 10.9609C19.0443 11.2474 19.5339 11.6484 19.8828 12.1641C20.2318 12.6745 20.4115 13.2604 20.4219 13.9219H18.1719Z" fill="white"/>
<path d="M48.8672 12.9023C48.8086 12.3424 48.5645 11.9062 48.1348 11.5938C47.7051 11.2812 47.1354 11.125 46.4258 11.125C45.9375 11.125 45.5176 11.1966 45.166 11.3398C44.821 11.4766 44.5573 11.6686 44.375 11.916C44.1927 12.1634 44.1016 12.4466 44.1016 12.7656C44.1016 13.2214 44.3066 13.5859 44.7168 13.8594C45.127 14.1328 45.6771 14.3477 46.3672 14.5039L47.6367 14.8164C48.9453 15.1094 49.9772 15.5944 50.7324 16.2715C51.4941 16.9421 51.875 17.8372 51.875 18.957C51.875 19.8229 51.6569 20.5749 51.2207 21.2129C50.7845 21.8444 50.1562 22.3327 49.3359 22.6777C48.5156 23.0228 47.5391 23.1953 46.4062 23.1953C45.2604 23.1953 44.2643 23.0195 43.418 22.668C42.5781 22.3164 41.9238 21.7988 41.4551 21.1152C40.9928 20.4251 40.7487 19.582 40.7227 18.5859H43.5742C43.6198 19.2826 43.8932 19.8164 44.3945 20.1875C44.9023 20.5521 45.5599 20.7344 46.3672 20.7344C46.875 20.7344 47.321 20.6595 47.7051 20.5098C48.0892 20.36 48.3854 20.1517 48.5938 19.8848C48.8021 19.6178 48.9062 19.3086 48.9062 18.957C48.9062 18.5013 48.7077 18.14 48.3105 17.873C47.9199 17.6061 47.3112 17.3685 46.4844 17.1602L44.9414 16.7891C42.3763 16.1576 41.0938 14.875 41.0938 12.9414C41.0938 12.0951 41.3216 11.3496 41.7773 10.7051C42.2396 10.054 42.8776 9.55273 43.6914 9.20117C44.5052 8.8431 45.4232 8.66406 46.4453 8.66406C47.474 8.66406 48.3822 8.8431 49.1699 9.20117C49.9577 9.55924 50.5697 10.0605 51.0059 10.7051C51.4421 11.3431 51.6667 12.0755 51.6797 12.9023H48.8672ZM59.3164 14.5625H57.3242V19.7383C57.3242 20.1289 57.4089 20.4023 57.5781 20.5586C57.7474 20.7148 57.9948 20.7995 58.3203 20.8125C58.737 20.8125 59.1211 20.793 59.4727 20.7539V23.0391C59.1276 23.1042 58.6133 23.1367 57.9297 23.1367C56.8424 23.1367 55.9863 22.8861 55.3613 22.3848C54.7363 21.8835 54.4271 21.138 54.4336 20.1484V14.5625H52.9688V12.3945H54.4336V9.85547H57.3242V12.3945H59.3164V14.5625ZM67.9297 12.3945H70.8203V23H68.0469V21.0859H67.9297C67.6758 21.7174 67.2689 22.2188 66.709 22.5898C66.1556 22.9544 65.4883 23.1367 64.707 23.1367C63.9974 23.1367 63.3724 22.9772 62.832 22.6582C62.2982 22.3392 61.8815 21.8802 61.582 21.2812C61.2826 20.6758 61.1328 19.9661 61.1328 19.1523V12.3945H64.0234V18.6445C64.0234 19.2695 64.1895 19.7676 64.5215 20.1387C64.86 20.5098 65.3125 20.6953 65.8789 20.6953C66.2435 20.6953 66.582 20.6107 66.8945 20.4414C67.207 20.2656 67.4577 20.0117 67.6465 19.6797C67.8353 19.3477 67.9297 18.9505 67.9297 18.4883V12.3945ZM76.9727 23.1758C76.1523 23.1758 75.4167 22.9642 74.7656 22.541C74.1146 22.1113 73.6003 21.4863 73.2227 20.666C72.8451 19.8392 72.6562 18.8529 72.6562 17.707C72.6562 16.5352 72.8483 15.5423 73.2324 14.7285C73.6165 13.9082 74.1341 13.293 74.7852 12.8828C75.4427 12.4661 76.1719 12.2578 76.9727 12.2578C77.7734 12.2578 78.4147 12.4434 78.8965 12.8145C79.3783 13.1855 79.7396 13.638 79.9805 14.1719H80.0781V8.85938H82.9688V23H80.1172V21.3008H79.9805C79.7331 21.8281 79.3652 22.2741 78.877 22.6387C78.3887 22.9967 77.7539 23.1758 76.9727 23.1758ZM77.8711 20.8711C78.3464 20.8711 78.7533 20.7409 79.0918 20.4805C79.4303 20.2135 79.6875 19.8424 79.8633 19.3672C80.0456 18.8854 80.1367 18.3255 80.1367 17.6875C80.1367 16.724 79.9382 15.9622 79.541 15.4023C79.1439 14.8424 78.5872 14.5625 77.8711 14.5625C77.1549 14.5625 76.6016 14.8457 76.2109 15.4121C75.8203 15.9785 75.625 16.737 75.625 17.6875C75.625 18.651 75.8203 19.4225 76.2109 20.002C76.6016 20.5814 77.1549 20.8711 77.8711 20.8711ZM86.9922 26.9844C86.3867 26.9844 85.8984 26.9648 85.5273 26.9258V24.6797C86.0221 24.7057 86.4128 24.7188 86.6992 24.7188C86.9271 24.7188 87.1159 24.6992 87.2656 24.6602C87.4219 24.6211 87.5684 24.5299 87.7051 24.3867C87.8483 24.2435 87.9753 24.0286 88.0859 23.7422L88.2617 23.293L84.4531 12.3945H87.4805L89.707 20.207H89.8242L92.0703 12.3945H95.1367L90.9961 24.1719C90.6771 25.0768 90.1986 25.7702 89.5605 26.252C88.9225 26.7402 88.0664 26.9844 86.9922 26.9844ZM96.6016 8.85938H99.5312V14.7188H105.664V8.85938H108.613V23H105.664V17.1406H99.5312V23H96.6016V8.85938ZM117.734 12.3945H120.625V23H117.852V21.0859H117.734C117.48 21.7174 117.074 22.2188 116.514 22.5898C115.96 22.9544 115.293 23.1367 114.512 23.1367C113.802 23.1367 113.177 22.9772 112.637 22.6582C112.103 22.3392 111.686 21.8802 111.387 21.2812C111.087 20.6758 110.938 19.9661 110.938 19.1523V12.3945H113.828V18.6445C113.828 19.2695 113.994 19.7676 114.326 20.1387C114.665 20.5098 115.117 20.6953 115.684 20.6953C116.048 20.6953 116.387 20.6107 116.699 20.4414C117.012 20.2656 117.262 20.0117 117.451 19.6797C117.64 19.3477 117.734 18.9505 117.734 18.4883V12.3945ZM122.93 8.85938H125.82V14.1719H125.898C126.152 13.6315 126.52 13.179 127.002 12.8145C127.484 12.4434 128.125 12.2578 128.926 12.2578C129.727 12.2578 130.452 12.4661 131.104 12.8828C131.761 13.293 132.282 13.9082 132.666 14.7285C133.05 15.5423 133.242 16.5352 133.242 17.707C133.242 18.8529 133.053 19.8392 132.676 20.666C132.298 21.4863 131.784 22.1113 131.133 22.541C130.482 22.9642 129.746 23.1758 128.926 23.1758C128.138 23.1758 127.497 22.9967 127.002 22.6387C126.514 22.2741 126.146 21.8281 125.898 21.3008H125.781V23H122.93V8.85938ZM125.762 17.6875C125.762 18.3255 125.85 18.8854 126.025 19.3672C126.201 19.8424 126.458 20.2135 126.797 20.4805C127.135 20.7409 127.539 20.8711 128.008 20.8711C128.73 20.8711 129.287 20.5814 129.678 20.002C130.075 19.4225 130.273 18.651 130.273 17.6875C130.273 16.737 130.075 15.9785 129.678 15.4121C129.287 14.8457 128.73 14.5625 128.008 14.5625C127.292 14.5625 126.738 14.8424 126.348 15.4023C125.957 15.9557 125.762 16.7174 125.762 17.6875Z" fill="#CA8A04"/>
</svg>
