<svg width="17" height="16" viewBox="0 0 17 16" fill="none" xmlns="http://www.w3.org/2000/svg">
<path d="M4.99875 11.6654C5.1987 11.6987 5.4042 11.732 5.61526 11.7654C6.13735 11.8654 6.665 11.982 7.1982 12.1154C7.95357 12.3043 8.65895 12.5154 9.31434 12.7487C10.1364 13.0376 10.8639 13.3543 11.4971 13.6987C12.2414 14.0987 12.8523 14.532 13.33 14.9987H14.1631C14.3853 14.9987 14.5769 14.9181 14.738 14.757C14.8991 14.5959 14.9796 14.3987 14.9796 14.1654V9.11537C15.3462 9.01537 15.6489 8.81814 15.8877 8.5237C16.1265 8.22925 16.2432 7.88759 16.2376 7.4987C16.2321 7.10981 16.1126 6.76814 15.8794 6.4737C15.6461 6.17925 15.3517 5.98203 14.9962 5.88203V0.832032C14.9962 0.598699 14.9129 0.401477 14.7463 0.240366C14.5797 0.0792542 14.3797 -0.00130081 14.1465 -0.00130081H13.33C12.8634 0.465365 12.2525 0.898699 11.4971 1.2987C10.8639 1.64314 10.1364 1.95981 9.31434 2.2487C8.65895 2.48203 7.95357 2.69314 7.1982 2.88203C6.665 3.01537 6.13735 3.13203 5.61526 3.23203L4.99875 3.33203H1.66625C1.35522 3.33203 1.07195 3.40703 0.816462 3.55703C0.560971 3.70703 0.361021 3.90981 0.216612 4.16537C0.0722042 4.42092 0 4.6987 0 4.9987V9.9987C0 10.2987 0.0722042 10.5765 0.216612 10.832C0.361021 11.0876 0.560971 11.2904 0.816462 11.4404C1.07195 11.5904 1.34966 11.6654 1.64959 11.6654H2.49937L3.3325 15.832H4.99875V11.6654ZM6.665 4.71537C7.35372 4.57092 8.02577 4.3987 8.68116 4.1987C10.5918 3.64314 12.1359 2.95981 13.3133 2.1487V12.8487C12.1359 12.0376 10.5918 11.3543 8.68116 10.7987C8.02577 10.5987 7.34816 10.4265 6.64834 10.282V4.71537H6.665ZM1.66625 4.9987H4.99875V9.9987H1.66625V4.9987Z" fill="#16A34A"/>
</svg>
