<svg width="12" height="12" viewBox="0 0 12 12" fill="none" xmlns="http://www.w3.org/2000/svg">
<path d="M10.6931 2.856L9.50495 4.056V1.2H4.15842V4.2H1.18812V10.8H9.50495V9.144L10.6931 7.944V11.4C10.6931 11.568 10.6356 11.71 10.5208 11.826C10.4059 11.942 10.2693 12 10.1109 12H0.594059C0.427723 12 0.287129 11.942 0.172277 11.826C0.0574257 11.71 0 11.568 0 11.4V3.6L3.56436 0H10.099C10.2653 0 10.4059 0.0579996 10.5208 0.174C10.6356 0.29 10.6931 0.432 10.6931 0.599999V2.856ZM11.1564 4.08L12 4.932L7.37822 9.6H6.53465V8.748L11.1564 4.08Z" fill="#0D9488"/>
</svg>
