<svg width="18" height="16" viewBox="0 0 18 16" fill="none" xmlns="http://www.w3.org/2000/svg">
<path d="M13.4605 14.666H4.13303C3.76881 14.666 3.43346 14.5771 3.12699 14.3993C2.82051 14.2216 2.57844 13.9793 2.40078 13.6727C2.22311 13.366 2.13428 13.0305 2.13428 12.666V1.99935C2.13428 1.81268 2.19868 1.65491 2.32749 1.52602C2.4563 1.39713 2.61398 1.33268 2.80053 1.33268H12.128C12.3146 1.33268 12.4723 1.39713 12.6011 1.52602C12.7299 1.65491 12.7943 1.81268 12.7943 1.99935V9.99935H15.4593V12.666C15.4593 13.0305 15.3704 13.366 15.1928 13.6727C15.0151 13.9793 14.773 14.2216 14.4666 14.3993C14.1601 14.5771 13.8247 14.666 13.4605 14.666ZM12.7943 11.3327V12.666C12.7943 12.8527 12.8587 13.0105 12.9875 13.1393C13.1163 13.2682 13.274 13.3327 13.4605 13.3327C13.6471 13.3327 13.8048 13.2682 13.9336 13.1393C14.0624 13.0105 14.1268 12.8527 14.1268 12.666V11.3327H12.7943ZM11.4618 13.3327V2.66602H3.46678V12.666C3.46678 12.8527 3.53118 13.0105 3.65999 13.1393C3.7888 13.2682 3.94648 13.3327 4.13303 13.3327H11.4618ZM4.79928 4.66602H10.1293V5.99935H4.79928V4.66602ZM4.79928 7.33268H10.1293V8.66602H4.79928V7.33268ZM4.79928 9.99935H8.13053V11.3327H4.79928V9.99935Z" fill="#CA8A04"/>
</svg>
