<svg width="14" height="14" viewBox="0 0 14 14" fill="none" xmlns="http://www.w3.org/2000/svg">
<path d="M11.3263 13.332H1.99875C1.63453 13.332 1.29919 13.2431 0.992712 13.0654C0.686237 12.8876 0.444167 12.6454 0.2665 12.3387C0.0888333 12.032 0 11.6965 0 11.332V0.665365C0 0.478699 0.0644042 0.320921 0.193213 0.192032C0.322021 0.0631428 0.4797 -0.00130177 0.66625 -0.00130177H9.99375C10.1803 -0.00130177 10.338 0.0631428 10.4668 0.192032C10.5956 0.320921 10.66 0.478699 10.66 0.665365V8.66536H13.325V11.332C13.325 11.6965 13.2362 12.032 13.0585 12.3387C12.8808 12.6454 12.6388 12.8876 12.3323 13.0654C12.0258 13.2431 11.6905 13.332 11.3263 13.332ZM10.66 9.9987V11.332C10.66 11.5187 10.7244 11.6765 10.8532 11.8054C10.982 11.9343 11.1397 11.9987 11.3263 11.9987C11.5128 11.9987 11.6705 11.9343 11.7993 11.8054C11.9281 11.6765 11.9925 11.5187 11.9925 11.332V9.9987H10.66ZM9.3275 11.9987V1.33203H1.3325V11.332C1.3325 11.5187 1.3969 11.6765 1.52571 11.8054C1.65452 11.9343 1.8122 11.9987 1.99875 11.9987H9.3275ZM2.665 3.33203H7.995V4.66537H2.665V3.33203ZM2.665 5.9987H7.995V7.33203H2.665V5.9987ZM2.665 8.66536H5.99625V9.9987H2.665V8.66536Z" fill="white"/>
</svg>
