<svg width="17" height="17" viewBox="0 0 17 17" fill="none" xmlns="http://www.w3.org/2000/svg">
<path d="M14.1631 16.668H2.49938C2.04393 16.668 1.62459 16.5569 1.24136 16.3346C0.858119 16.1124 0.555417 15.8096 0.33325 15.4263C0.111083 15.043 0 14.6235 0 14.168V0.834637C0 0.601303 0.0805354 0.404081 0.241606 0.24297C0.402677 0.0818577 0.59985 0.00130272 0.833125 0.00130272H12.4969C12.7302 0.00130272 12.9273 0.0818577 13.0884 0.24297C13.2495 0.404081 13.33 0.601303 13.33 0.834637V10.8346H16.6625V14.168C16.6625 14.6235 16.5514 15.043 16.3293 15.4263C16.1071 15.8096 15.8044 16.1124 15.4211 16.3346C15.0379 16.5569 14.6186 16.668 14.1631 16.668ZM13.33 12.5013V14.168C13.33 14.4013 13.4105 14.5985 13.5716 14.7596C13.7327 14.9207 13.9299 15.0013 14.1631 15.0013C14.3964 15.0013 14.5936 14.9207 14.7546 14.7596C14.9157 14.5985 14.9963 14.4013 14.9963 14.168V12.5013H13.33ZM11.6638 15.0013V1.66797H1.66625V14.168C1.66625 14.4013 1.74679 14.5985 1.90786 14.7596C2.06893 14.9207 2.2661 15.0013 2.49938 15.0013H11.6638ZM3.3325 4.16797H9.9975V5.83464H3.3325V4.16797ZM3.3325 7.5013H9.9975V9.16797H3.3325V7.5013ZM3.3325 10.8346H7.49813V12.5013H3.3325V10.8346Z" fill="#4B5563"/>
</svg>
