<svg width="21" height="21" viewBox="0 0 21 21" fill="none" xmlns="http://www.w3.org/2000/svg">
<path d="M9.48 -0.00019455L19.38 1.41981L20.8 11.3198L11.6 20.4998C11.4133 20.6998 11.18 20.7998 10.9 20.7998C10.62 20.7998 10.3867 20.6998 10.2 20.4998L0.3 10.5998C0.1 10.4131 0 10.1798 0 9.89981C0 9.61981 0.1 9.38647 0.3 9.19981L9.48 -0.00019455ZM10.2 2.1198L2.42 9.89981L10.9 18.3798L18.68 10.5998L17.62 3.17981L10.2 2.1198ZM12.32 8.4798C12.0667 8.22647 11.8933 7.9298 11.8 7.5898C11.7067 7.24981 11.7067 6.90647 11.8 6.5598C11.8933 6.21314 12.0667 5.91314 12.32 5.65981C12.5733 5.40647 12.87 5.23314 13.21 5.1398C13.55 5.04647 13.8933 5.04647 14.24 5.1398C14.5867 5.23314 14.8867 5.40647 15.14 5.65981C15.3933 5.91314 15.5667 6.21314 15.66 6.5598C15.7533 6.90647 15.7533 7.24981 15.66 7.5898C15.5667 7.9298 15.3933 8.22647 15.14 8.4798C14.8867 8.73314 14.5867 8.90647 14.24 8.9998C13.8933 9.09314 13.55 9.09314 13.21 8.9998C12.87 8.90647 12.5733 8.73314 12.32 8.4798Z" fill="currentColor"/>
</svg> 
