<svg width="19" height="23" viewBox="0 0 19 23" fill="none" xmlns="http://www.w3.org/2000/svg">
<path d="M8 13V15C6.92 15 5.91333 15.2733 4.98 15.82C4.07333 16.3533 3.35333 17.0666 2.82 17.96C2.27333 18.8933 2 19.9066 2 21H0C0 19.5466 0.366667 18.2 1.1 16.96C1.80667 15.7466 2.76 14.7866 3.96 14.08C5.2 13.36 6.54667 13 8 13ZM8 12C6.92 12 5.91333 11.7266 4.98 11.18C4.07333 10.6466 3.35333 9.92664 2.82 9.01998C2.27333 8.08664 2 7.07664 2 5.98998C2 4.90331 2.27333 3.89331 2.82 2.95998C3.35333 2.06664 4.07333 1.35331 4.98 0.819977C5.91333 0.27331 6.92333 -2.28882e-05 8.01 -2.28882e-05C9.09667 -2.28882e-05 10.1067 0.27331 11.04 0.819977C11.9333 1.35331 12.6467 2.06664 13.18 2.95998C13.7267 3.89331 14 4.90331 14 5.98998C14 7.07664 13.7267 8.08664 13.18 9.01998C12.6467 9.92664 11.9333 10.6466 11.04 11.18C10.1067 11.7266 9.09333 12 8 12ZM8 9.99998C8.72 9.99998 9.38667 9.81998 10 9.45998C10.6133 9.09998 11.1 8.61331 11.46 7.99998C11.82 7.38664 12 6.71998 12 5.99998C12 5.27998 11.82 4.61331 11.46 3.99998C11.1 3.38664 10.6133 2.89998 10 2.53998C9.38667 2.17998 8.72 1.99998 8 1.99998C7.28 1.99998 6.61333 2.17998 6 2.53998C5.38667 2.89998 4.9 3.38664 4.54 3.99998C4.18 4.61331 4 5.27998 4 5.99998C4 6.71998 4.18 7.38664 4.54 7.99998C4.9 8.61331 5.38667 9.09998 6 9.45998C6.61333 9.81998 7.28 9.99998 8 9.99998ZM14 20.5L11.06 22.04L11.62 18.76L9.24 16.46L12.54 15.98L14 13L15.48 15.98L18.76 16.46L16.38 18.76L16.94 22.04L14 20.5Z" fill="#CA8A04"/>
</svg>
