<svg width="14" height="14" viewBox="0 0 14 14" fill="none" xmlns="http://www.w3.org/2000/svg">
<path d="M6.6625 5.9987C7.26657 5.9987 7.824 6.14759 8.33479 6.44536C8.84558 6.74314 9.24977 7.14759 9.54736 7.6587C9.84495 8.16981 9.99375 8.72759 9.99375 9.33203V13.332H8.66125V9.33203C8.66125 8.98536 8.57686 8.66314 8.40808 8.36537C8.23929 8.06759 8.01277 7.82759 7.7285 7.64536C7.44423 7.46314 7.12888 7.3587 6.78242 7.33203H6.6625C6.31605 7.33203 5.99403 7.41648 5.69644 7.58536C5.39885 7.75425 5.159 7.98092 4.97689 8.26536C4.79478 8.54981 4.6904 8.86536 4.66375 9.21203V13.332H3.33125V9.33203C3.33125 8.72759 3.48005 8.16981 3.77764 7.6587C4.07523 7.14759 4.47942 6.74314 4.99021 6.44536C5.501 6.14759 6.05843 5.9987 6.6625 5.9987ZM2.33188 7.9987C2.51842 7.9987 2.70053 8.02092 2.8782 8.06536C2.76272 8.40314 2.69165 8.74981 2.665 9.10536V9.38536C2.58505 9.3587 2.5051 9.34092 2.42515 9.33203H2.33188C2.07426 9.33203 1.84995 9.4187 1.65896 9.59203C1.46797 9.76536 1.35915 9.98092 1.3325 10.2387V10.332V13.332H0V10.332C0 9.90536 0.104379 9.51425 0.313138 9.1587C0.521896 8.80314 0.803942 8.52092 1.15928 8.31203C1.51461 8.10314 1.90548 7.9987 2.33188 7.9987ZM10.9931 7.9987C11.4195 7.9987 11.8104 8.10314 12.1657 8.31203C12.5211 8.52092 12.8031 8.80314 13.0119 9.1587C13.2206 9.51425 13.325 9.90536 13.325 10.332V13.332H11.9925V10.332C11.9925 10.0743 11.9059 9.84981 11.7327 9.6587C11.5594 9.46759 11.344 9.3587 11.0864 9.33203H10.9931C10.8776 9.33203 10.7666 9.34981 10.66 9.38536V9.33203C10.66 8.89648 10.5934 8.47425 10.4601 8.06536C10.6289 8.02092 10.8066 7.9987 10.9931 7.9987ZM2.33188 3.9987C2.63391 3.9987 2.91151 4.07425 3.16469 4.22536C3.41786 4.37648 3.61996 4.5787 3.77098 4.83203C3.92199 5.08537 3.9975 5.36314 3.9975 5.66536C3.9975 5.96759 3.92199 6.24537 3.77098 6.4987C3.61996 6.75203 3.41786 6.95425 3.16469 7.10536C2.91151 7.25648 2.63391 7.33203 2.33188 7.33203C2.02984 7.33203 1.75224 7.25648 1.49906 7.10536C1.24589 6.95425 1.04379 6.75203 0.892775 6.4987C0.741758 6.24537 0.66625 5.96759 0.66625 5.66536C0.66625 5.36314 0.741758 5.08537 0.892775 4.83203C1.04379 4.5787 1.24589 4.37648 1.49906 4.22536C1.75224 4.07425 2.02984 3.9987 2.33188 3.9987ZM10.9931 3.9987C11.2952 3.9987 11.5728 4.07425 11.8259 4.22536C12.0791 4.37648 12.2812 4.5787 12.4322 4.83203C12.5832 5.08537 12.6588 5.36314 12.6588 5.66536C12.6588 5.96759 12.5832 6.24537 12.4322 6.4987C12.2812 6.75203 12.0791 6.95425 11.8259 7.10536C11.5728 7.25648 11.2952 7.33203 10.9931 7.33203C10.6911 7.33203 10.4135 7.25648 10.1603 7.10536C9.90714 6.95425 9.70504 6.75203 9.55402 6.4987C9.40301 6.24537 9.3275 5.96759 9.3275 5.66536C9.3275 5.36314 9.40301 5.08537 9.55402 4.83203C9.70504 4.5787 9.90714 4.37648 10.1603 4.22536C10.4135 4.07425 10.6911 3.9987 10.9931 3.9987ZM2.33188 5.33203C2.24304 5.33203 2.16531 5.36537 2.09869 5.43203C2.03206 5.4987 1.99875 5.57648 1.99875 5.66536C1.99875 5.75425 2.03206 5.83203 2.09869 5.8987C2.16531 5.96536 2.24304 5.9987 2.33188 5.9987C2.42071 5.9987 2.49844 5.96536 2.56506 5.8987C2.63169 5.83203 2.665 5.75425 2.665 5.66536C2.665 5.57648 2.63169 5.4987 2.56506 5.43203C2.49844 5.36537 2.42071 5.33203 2.33188 5.33203ZM10.9931 5.33203C10.9043 5.33203 10.8266 5.36537 10.7599 5.43203C10.6933 5.4987 10.66 5.57648 10.66 5.66536C10.66 5.75425 10.6933 5.83203 10.7599 5.8987C10.8266 5.96536 10.9043 5.9987 10.9931 5.9987C11.082 5.9987 11.1597 5.96536 11.2263 5.8987C11.2929 5.83203 11.3263 5.75425 11.3263 5.66536C11.3263 5.57648 11.2929 5.4987 11.2263 5.43203C11.1597 5.36537 11.082 5.33203 10.9931 5.33203ZM6.6625 -0.00130177C7.1422 -0.00130177 7.58637 0.118698 7.995 0.358699C8.40363 0.598699 8.72787 0.923143 8.96772 1.33203C9.20757 1.74092 9.3275 2.18536 9.3275 2.66537C9.3275 3.14536 9.20757 3.58981 8.96772 3.9987C8.72787 4.40759 8.40363 4.73203 7.995 4.97203C7.58637 5.21203 7.1422 5.33203 6.6625 5.33203C6.1828 5.33203 5.73863 5.21203 5.33 4.97203C4.92137 4.73203 4.59713 4.40759 4.35728 3.9987C4.11742 3.58981 3.9975 3.14536 3.9975 2.66537C3.9975 2.18536 4.11742 1.74092 4.35728 1.33203C4.59713 0.923143 4.92137 0.598699 5.33 0.358699C5.73863 0.118698 6.1828 -0.00130177 6.6625 -0.00130177ZM6.6625 1.33203C6.42265 1.33203 6.20057 1.39203 5.99625 1.51203C5.79193 1.63203 5.62981 1.79425 5.50989 1.9987C5.38996 2.20314 5.33 2.42537 5.33 2.66537C5.33 2.90536 5.38996 3.12759 5.50989 3.33203C5.62981 3.53648 5.79193 3.6987 5.99625 3.8187C6.20057 3.9387 6.42265 3.9987 6.6625 3.9987C6.90235 3.9987 7.12443 3.9387 7.32875 3.8187C7.53307 3.6987 7.69519 3.53648 7.81511 3.33203C7.93504 3.12759 7.995 2.90536 7.995 2.66537C7.995 2.42537 7.93504 2.20314 7.81511 1.9987C7.69519 1.79425 7.53307 1.63203 7.32875 1.51203C7.12443 1.39203 6.90235 1.33203 6.6625 1.33203Z" fill="#9CA3AF"/>
</svg>
